Coordinates
version=1
nRows=24
nColumns=24
inDegrees=yes

Units are S.I. units (second, meters, Newtons, ...)
Angles are in degrees.

endheader
time	pelvis_tilt	pelvis_list	pelvis_rotation	pelvis_tx	pelvis_ty	pelvis_tz	hip_flexion_r	hip_adduction_r	hip_rotation_r	knee_angle_r	ankle_angle_r	subtalar_angle_r	mtp_angle_r	hip_flexion_l	hip_adduction_l	hip_rotation_l	knee_angle_l	ankle_angle_l	subtalar_angle_l	mtp_angle_l	lumbar_extension	lumbar_bending	lumbar_rotation
      0.95850000	      5.09838832	     -2.42200303	     -1.51207859	     -0.36011831	      1.07825162	      0.30227880	      0.98242143	      8.48513305	     -3.10457223	     -9.86862737	      0.49015081	     -9.73352995	      1.88509580	      7.51716337	     -4.10847000	     -1.40323923	    -61.90389488	     -0.70298101	     -4.29543095	      7.67225503	     -1.02215143	      6.66138603	     -0.40281981
      0.96266667	      5.13024081	     -2.40971195	     -1.63070990	     -0.35522275	      1.07886712	      0.30266969	      0.50075775	      8.48008885	     -2.95487409	     -9.56728103	      0.55440623	     -9.64087824	      1.89159461	      8.00025144	     -4.02539423	     -1.19411808	    -61.61021045	     -0.20690397	     -4.72105283	      7.58872345	     -1.06598470	      6.63099136	     -0.24838954
      0.96683333	      5.14316128	     -2.39070285	     -1.76642605	     -0.35035241	      1.07943958	      0.30306665	      0.04578788	      8.46403233	     -2.81523639	     -9.28160793	      0.61585684	     -9.55522660	      1.89773259	      8.48962891	     -3.93417138	     -1.00471955	    -61.26961862	      0.26098959	     -5.15690970	      7.49449370	     -1.11770165	      6.60346773	     -0.07510682
      0.97100000	      5.16168661	     -2.37616416	     -1.90125151	     -0.34550219	      1.07999081	      0.30346749	     -0.41900105	      8.45357866	     -2.66157478	     -8.98150585	      0.67125975	     -9.47377866	      1.90296787	      8.96170072	     -3.84878047	     -0.80930180	    -60.88211090	      0.67449377	     -5.56447186	      7.40280379	     -1.15902793	      6.57740692	      0.09494392
      0.97516667	      5.17010754	     -2.35821766	     -2.04154665	     -0.34066499	      1.08051014	      0.30386899	     -0.87047504	      8.43845612	     -2.50562865	     -8.68485056	      0.72717510	     -9.40375247	      1.90765335	      9.43276945	     -3.76093722	     -0.62673144	    -60.44854670	      1.08810922	     -5.99899757	      7.30006151	     -1.19924751	      6.54608612	      0.28238947
      0.97933333	      5.18765258	     -2.31636319	     -2.25436618	     -0.33586621	      1.08103315	      0.30424281	     -1.31156095	      8.37920853	     -2.37075110	     -8.43773031	      0.79454834	     -9.35670864	      1.91315822	      9.86218387	     -3.64118925	     -0.52066309	    -59.94895120	      1.51300786	     -6.57053865	      7.10030936	     -1.30054977	      6.55319613	      0.59366307
      0.98350000	      5.18092022	     -2.31919448	     -2.32823660	     -0.33106149	      1.08144613	      0.30465331	     -1.76434348	      8.39838620	     -2.18449767	     -8.09229253	      0.82958904	     -9.28009378	      1.91615588	     10.34580128	     -3.58094743	     -0.26926553	    -59.44233127	      1.74975830	     -6.83679401	      7.01431007	     -1.30224719	      6.51154595	      0.73232847
      0.98766667	      5.16827726	     -2.29477628	     -2.45946654	     -0.32622237	      1.08184989	      0.30503672	     -2.20105437	      8.37231805	     -2.00324180	     -7.77924973	      0.87999912	     -9.23609516	      1.91833831	     10.80003062	     -3.48760245	     -0.08462921	    -58.87457380	      2.13177745	     -7.26990550	      6.90337387	     -1.29304564	      6.46619177	      0.90827102
      0.99183333	      5.15263314	     -2.27408270	     -2.60303758	     -0.32142397	      1.08221894	      0.30541206	     -2.62731237	      8.34681818	     -1.82740317	     -7.47769147	      0.92875807	     -9.20155788	      1.91961761	     11.24583649	     -3.39974705	      0.08221172	    -58.26462423	      2.46273517	     -7.71212967	      6.77575338	     -1.31017010	      6.43948914	      1.09876338
      0.99600000	      5.13241612	     -2.25625297	     -2.72927924	     -0.31664653	      1.08253861	      0.30577378	     -3.04798737	      8.32557808	     -1.65499170	     -7.17367156	      0.97473166	     -9.16875962	      1.92014195	     11.69001112	     -3.31502370	      0.26953588	    -57.61474575	      2.73805103	     -8.10527132	      6.66018422	     -1.31776059	      6.41405611	      1.26816318
      1.00016667	      5.11309500	     -2.23520312	     -2.95327030	     -0.31198988	      1.08283703	      0.30619908	     -3.44798701	      8.28699491	     -1.40054349	     -6.91197779	      1.02081361	     -9.18508412	      1.91434768	     12.10898742	     -3.24218835	      0.33493985	    -56.90173070	      2.79581918	     -8.90177386	      6.10017577	     -1.49879671	      6.46403836	      1.88159156
      1.00433333	      5.09280147	     -2.21727133	     -3.03706714	     -0.30712990	      1.08310664	      0.30650403	     -3.87927108	      8.26554805	     -1.29442236	     -6.58541369	      1.06142220	     -9.15222048	      1.91343408	     12.52280228	     -3.15422132	      0.55950501	    -56.16089905	      3.08119542	     -9.10472675	      5.99961124	     -1.39584086	      6.43197920	      1.95677693
      1.00850000	      5.05419783	     -2.20994501	     -3.14019571	     -0.30234173	      1.08329382	      0.30680539	     -4.28372770	      8.25288710	     -1.13694986	     -6.27202019	      1.10946327	     -9.12412750	      1.91177860	     12.94943019	     -3.08271490	      0.75357943	    -55.39789181	      3.37965959	     -9.44113482	      5.88316668	     -1.36602297	      6.40193707	      2.04700985
      1.01266667	      5.00153526	     -2.20435948	     -3.25656789	     -0.29755885	      1.08342957	      0.30710815	     -4.67065736	      8.23847420	     -0.96485454	     -5.96051257	      1.16100444	     -9.10685191	      1.90900016	     13.37491910	     -3.01682307	      0.93142333	    -54.58707776	      3.62510424	     -9.84130973	      5.74959207	     -1.32190548	      6.38613888	      2.15850537
      1.01683333	      4.96278825	     -2.19865879	     -3.36958379	     -0.29277702	      1.08355098	      0.30740006	     -5.07259900	      8.22200486	     -0.80395576	     -5.65324614	      1.21276941	     -9.09834707	      1.90499044	     13.77043606	     -2.95308898	      1.09804764	    -53.73477597	      3.80521167	    -10.25824561	      5.60384549	     -1.29015133	      6.37455595	      2.28392831
      1.02100000	      4.91126514	     -2.20175701	     -3.47907002	     -0.28801375	      1.08361434	      0.30768837	     -5.45683399	      8.21495559	     -0.64335891	     -5.35366847	      1.26421068	     -9.09510611	      1.89949485	     14.16969457	     -2.90294428	      1.26596229	    -52.84781210	      3.93973400	    -10.69913762	      5.44032801	     -1.26008318	      6.37601629	      2.42177757
      1.02516667	      4.86108652	     -2.20811870	     -3.58421830	     -0.28322325	      1.08364332	      0.30794365	     -5.84476723	      8.20791621	     -0.50050895	     -5.05069333	      1.31415311	     -9.08863161	      1.89323374	     14.54949436	     -2.85601349	      1.42892045	    -51.91737255	      4.03878004	    -11.11598037	      5.27671096	     -1.22748064	      6.39109140	      2.55504454
      1.02933333	      4.80859573	     -2.21906206	     -3.67844485	     -0.27845039	      1.08362161	      0.30817506	     -6.22983519	      8.20566293	     -0.35821609	     -4.74599423	      1.36637484	     -9.08276707	      1.88587252	     14.92390250	     -2.81329876	      1.59725353	    -50.95689498	      4.11358327	    -11.53429433	      5.10574060	     -1.19876020	      6.40606441	      2.68764551
      1.03350000	      4.76885392	     -2.21930136	     -3.86056220	     -0.27374013	      1.08361242	      0.30845675	     -6.60504765	      8.17318356	     -0.20739594	     -4.49217862	      1.42448192	     -9.14071555	      1.86178386	     15.25212001	     -2.77549772	      1.65910938	    -49.92523279	      4.00257802	    -12.31942585	      4.64900484	     -1.29082731	      6.40984129	      2.97386652
      1.03766667	      4.71615521	     -2.25942578	     -3.87790474	     -0.26897849	      1.08347425	      0.30861107	     -6.99832225	      8.21247719	     -0.10710732	     -4.16349420	      1.45799693	     -9.08998943	      1.85642081	     15.61895066	     -2.75873653	      1.89725608	    -48.92281810	      4.08023536	    -12.43773477	      4.53492243	     -1.22712988	      6.48656862	      3.02810364
      1.04183333	      4.66322765	     -2.26279607	     -4.00923489	     -0.26416703	      1.08336309	      0.30884067	     -7.37615124	      8.18774772	      0.01773792	     -3.88328722	      1.52997516	     -9.11558034	      1.83085317	     15.93338875	     -2.72179367	      1.99687275	    -47.83251320	      4.07658334	    -13.04815271	      4.11357629	     -1.21803056	      6.45653964	      3.21311240
      1.04600000	      4.60283541	     -2.31887928	     -4.01482228	     -0.25941242	      1.08312644	      0.30895025	     -7.76123210	      8.24378630	      0.11491291	     -3.55665493	      1.56083299	     -9.06555731	      1.82437889	     16.28389686	     -2.72376327	      2.22744666	    -46.76907502	      4.11838745	    -13.15440026	      3.99820892	     -1.16003751	      6.57046645	      3.24756999
      1.05016667	      4.49611612	     -2.36322612	     -4.07662276	     -0.25466308	      1.08280433	      0.30909281	     -8.06663307	      8.27851382	      0.13203056	     -3.29140776	      1.59710557	     -9.05322074	      1.82174884	     16.66303310	     -2.72917103	      2.38406368	    -45.67225302	      4.19450900	    -13.23961808	      3.95330198	     -1.20794945	      6.64900921	      3.25201841
      1.05433333	      4.49767852	     -2.37261292	     -4.17614825	     -0.24979435	      1.08264210	      0.30929320	     -8.52583452	      8.25655833	      0.31524478	     -2.97784110	      1.69034109	     -9.08704337	      1.79242380	     16.86955300	     -2.70005624	      2.48660175	    -44.46545169	      4.03852182	    -14.00994229	      3.53459622	     -1.10998012	      6.56734771	      3.42389719
